<svg width="80" height="85" viewBox="0 0 80 85" fill="none" xmlns="http://www.w3.org/2000/svg">
<path d="M52.7323 37.5737C55.8326 37.2376 58.6366 37.9203 61.1441 39.6217C63.6361 41.2756 65.3587 43.5511 66.3122 46.4482C67.6877 50.6277 67.3095 54.4368 65.1777 57.8756C63.0777 61.2513 59.4156 63.7988 54.1912 65.5182L30.8954 73.185L14.4363 23.1738L36.9485 15.7649C42.0304 14.0924 46.3791 13.9508 49.9946 15.3402C53.6577 16.7139 56.1457 19.3956 57.4586 23.385C58.4277 26.3297 58.4491 29.0335 57.5226 31.4966C56.6437 33.944 55.0469 35.9697 52.7323 37.5737ZM33.2772 39.397L41.2562 36.771C43.251 36.1145 44.6301 35.1869 45.3936 33.9881C46.189 32.7263 46.3053 31.2404 45.7426 29.5306C45.1799 27.8208 44.2039 26.6945 42.8146 26.1516C41.4727 25.5931 39.8044 25.6421 37.8097 26.2986L29.8307 28.9245L33.2772 39.397ZM48.8185 56.3903C50.8607 55.7182 52.2795 54.7512 53.0749 53.4893C53.9021 52.1643 54.0266 50.6231 53.4483 48.8658C52.8699 47.1085 51.823 45.9266 50.3074 45.32C48.8393 44.6978 47.0841 44.7227 45.0418 45.3948L36.208 48.3021L39.8421 59.3445L48.8185 56.3903Z" fill="#0C5551"/>
<path d="M50.9074 33.3924C54.0077 33.0564 56.8116 33.739 59.3192 35.4404C61.8111 37.0943 63.5338 39.3698 64.4873 42.2669C65.8628 46.4464 65.4846 50.2556 63.3527 53.6943C61.2528 57.07 57.5906 59.6175 52.3663 61.3369L29.0704 69.0037L12.6114 18.9925L35.1236 11.5836C40.2054 9.9111 44.5541 9.76955 48.1697 11.1589C51.8327 12.5327 54.3207 15.2143 55.6337 19.2038C56.6028 22.1484 56.6241 24.8523 55.6977 27.3153C54.8187 29.7628 53.2219 31.7885 50.9074 33.3924ZM31.4523 35.2157L39.4313 32.5898C41.426 31.9333 42.8051 31.0056 43.5687 29.8069C44.364 28.545 44.4804 27.0591 43.9177 25.3494C43.355 23.6396 42.379 22.5132 40.9896 21.9704C39.6478 21.4118 37.9795 21.4608 35.9847 22.1173L28.0057 24.7433L31.4523 35.2157ZM46.9935 52.209C49.0357 51.5369 50.4546 50.5699 51.2499 49.308C52.0772 47.983 52.2016 46.4418 51.6233 44.6846C51.045 42.9273 49.998 41.7453 48.4824 41.1387C47.0143 40.5165 45.2591 40.5414 43.2169 41.2135L34.383 44.1208L38.0171 55.1632L46.9935 52.209Z" fill="white"/>
</svg>
