<svg width="360" height="70" viewBox="0 0 360 70" fill="none" xmlns="http://www.w3.org/2000/svg">
<path d="M137.706 38C140.756 38.65 143.206 40.175 145.056 42.575C146.906 44.925 147.831 47.625 147.831 50.675C147.831 55.075 146.281 58.575 143.181 61.175C140.131 63.725 135.856 65 130.356 65H105.831V12.35H129.531C134.881 12.35 139.056 13.575 142.056 16.025C145.106 18.475 146.631 21.8 146.631 26C146.631 29.1 145.806 31.675 144.156 33.725C142.556 35.775 140.406 37.2 137.706 38ZM118.656 33.65H127.056C129.156 33.65 130.756 33.2 131.856 32.3C133.006 31.35 133.581 29.975 133.581 28.175C133.581 26.375 133.006 25 131.856 24.05C130.756 23.1 129.156 22.625 127.056 22.625H118.656V33.65ZM128.106 54.65C130.256 54.65 131.906 54.175 133.056 53.225C134.256 52.225 134.856 50.8 134.856 48.95C134.856 47.1 134.231 45.65 132.981 44.6C131.781 43.55 130.106 43.025 127.956 43.025H118.656V54.65H128.106ZM152.72 44C152.72 39.7 153.52 35.925 155.12 32.675C156.77 29.425 158.995 26.925 161.795 25.175C164.595 23.425 167.72 22.55 171.17 22.55C174.12 22.55 176.695 23.15 178.895 24.35C181.145 25.55 182.87 27.125 184.07 29.075V23.15H196.895V65H184.07V59.075C182.82 61.025 181.07 62.6 178.82 63.8C176.62 65 174.045 65.6 171.095 65.6C167.695 65.6 164.595 64.725 161.795 62.975C158.995 61.175 156.77 58.65 155.12 55.4C153.52 52.1 152.72 48.3 152.72 44ZM184.07 44.075C184.07 40.875 183.17 38.35 181.37 36.5C179.62 34.65 177.47 33.725 174.92 33.725C172.37 33.725 170.195 34.65 168.395 36.5C166.645 38.3 165.77 40.8 165.77 44C165.77 47.2 166.645 49.75 168.395 51.65C170.195 53.5 172.37 54.425 174.92 54.425C177.47 54.425 179.62 53.5 181.37 51.65C183.17 49.8 184.07 47.275 184.07 44.075ZM245.623 43.4C245.623 44.6 245.548 45.85 245.398 47.15H216.373C216.573 49.75 217.398 51.75 218.848 53.15C220.348 54.5 222.173 55.175 224.323 55.175C227.523 55.175 229.748 53.825 230.998 51.125H244.648C243.948 53.875 242.673 56.35 240.823 58.55C239.023 60.75 236.748 62.475 233.998 63.725C231.248 64.975 228.173 65.6 224.773 65.6C220.673 65.6 217.023 64.725 213.823 62.975C210.623 61.225 208.123 58.725 206.323 55.475C204.523 52.225 203.623 48.425 203.623 44.075C203.623 39.725 204.498 35.925 206.248 32.675C208.048 29.425 210.548 26.925 213.748 25.175C216.948 23.425 220.623 22.55 224.773 22.55C228.823 22.55 232.423 23.4 235.573 25.1C238.723 26.8 241.173 29.225 242.923 32.375C244.723 35.525 245.623 39.2 245.623 43.4ZM232.498 40.025C232.498 37.825 231.748 36.075 230.248 34.775C228.748 33.475 226.873 32.825 224.623 32.825C222.473 32.825 220.648 33.45 219.148 34.7C217.698 35.95 216.798 37.725 216.448 40.025H232.498ZM265.214 30.125C266.714 27.825 268.589 26.025 270.839 24.725C273.089 23.375 275.589 22.7 278.339 22.7V36.275H274.814C271.614 36.275 269.214 36.975 267.614 38.375C266.014 39.725 265.214 42.125 265.214 45.575V65H252.389V23.15H265.214V30.125Z" fill="#0C5551"/>
<path d="M118.706 26C121.756 26.65 124.206 28.175 126.056 30.575C127.906 32.925 128.831 35.625 128.831 38.675C128.831 43.075 127.281 46.575 124.181 49.175C121.131 51.725 116.856 53 111.356 53H86.8312V0.349998H110.531C115.881 0.349998 120.056 1.575 123.056 4.025C126.106 6.475 127.631 9.8 127.631 14C127.631 17.1 126.806 19.675 125.156 21.725C123.556 23.775 121.406 25.2 118.706 26ZM99.6562 21.65H108.056C110.156 21.65 111.756 21.2 112.856 20.3C114.006 19.35 114.581 17.975 114.581 16.175C114.581 14.375 114.006 13 112.856 12.05C111.756 11.1 110.156 10.625 108.056 10.625H99.6562V21.65ZM109.106 42.65C111.256 42.65 112.906 42.175 114.056 41.225C115.256 40.225 115.856 38.8 115.856 36.95C115.856 35.1 115.231 33.65 113.981 32.6C112.781 31.55 111.106 31.025 108.956 31.025H99.6562V42.65H109.106ZM133.72 32C133.72 27.7 134.52 23.925 136.12 20.675C137.77 17.425 139.995 14.925 142.795 13.175C145.595 11.425 148.72 10.55 152.17 10.55C155.12 10.55 157.695 11.15 159.895 12.35C162.145 13.55 163.87 15.125 165.07 17.075V11.15H177.895V53H165.07V47.075C163.82 49.025 162.07 50.6 159.82 51.8C157.62 53 155.045 53.6 152.095 53.6C148.695 53.6 145.595 52.725 142.795 50.975C139.995 49.175 137.77 46.65 136.12 43.4C134.52 40.1 133.72 36.3 133.72 32ZM165.07 32.075C165.07 28.875 164.17 26.35 162.37 24.5C160.62 22.65 158.47 21.725 155.92 21.725C153.37 21.725 151.195 22.65 149.395 24.5C147.645 26.3 146.77 28.8 146.77 32C146.77 35.2 147.645 37.75 149.395 39.65C151.195 41.5 153.37 42.425 155.92 42.425C158.47 42.425 160.62 41.5 162.37 39.65C164.17 37.8 165.07 35.275 165.07 32.075ZM226.623 31.4C226.623 32.6 226.548 33.85 226.398 35.15H197.373C197.573 37.75 198.398 39.75 199.848 41.15C201.348 42.5 203.173 43.175 205.323 43.175C208.523 43.175 210.748 41.825 211.998 39.125H225.648C224.948 41.875 223.673 44.35 221.823 46.55C220.023 48.75 217.748 50.475 214.998 51.725C212.248 52.975 209.173 53.6 205.773 53.6C201.673 53.6 198.023 52.725 194.823 50.975C191.623 49.225 189.123 46.725 187.323 43.475C185.523 40.225 184.623 36.425 184.623 32.075C184.623 27.725 185.498 23.925 187.248 20.675C189.048 17.425 191.548 14.925 194.748 13.175C197.948 11.425 201.623 10.55 205.773 10.55C209.823 10.55 213.423 11.4 216.573 13.1C219.723 14.8 222.173 17.225 223.923 20.375C225.723 23.525 226.623 27.2 226.623 31.4ZM213.498 28.025C213.498 25.825 212.748 24.075 211.248 22.775C209.748 21.475 207.873 20.825 205.623 20.825C203.473 20.825 201.648 21.45 200.148 22.7C198.698 23.95 197.798 25.725 197.448 28.025H213.498ZM246.214 18.125C247.714 15.825 249.589 14.025 251.839 12.725C254.089 11.375 256.589 10.7 259.339 10.7V24.275H255.814C252.614 24.275 250.214 24.975 248.614 26.375C247.014 27.725 246.214 30.125 246.214 33.575V53H233.389V11.15H246.214V18.125Z" fill="white"/>
</svg>
