<svg width="216" height="299" viewBox="0 0 216 299" fill="none" xmlns="http://www.w3.org/2000/svg">
<g filter="url(#filter0_d_6_112)">
<mask id="path-1-inside-1_6_112" fill="white">
<path fill-rule="evenodd" clip-rule="evenodd" d="M34.4516 24.5345C14.9537 40.2437 3.99995 61.5499 3.99995 83.766H4.06422C4.06358 83.8321 4.06326 83.8983 4.06326 83.9646V95.2096C4.06326 106.255 13.0176 115.21 24.0633 115.21H192C203.046 115.21 212 106.255 212 95.2096V83.9645C212 83.3455 211.972 82.7331 211.917 82.1285C211.393 60.5052 200.503 39.8573 181.485 24.5345C161.987 8.82532 135.542 0 107.968 0C80.3942 0 53.9494 8.82532 34.4516 24.5345Z"/>
</mask>
<path fill-rule="evenodd" clip-rule="evenodd" d="M34.4516 24.5345C14.9537 40.2437 3.99995 61.5499 3.99995 83.766H4.06422C4.06358 83.8321 4.06326 83.8983 4.06326 83.9646V95.2096C4.06326 106.255 13.0176 115.21 24.0633 115.21H192C203.046 115.21 212 106.255 212 95.2096V83.9645C212 83.3455 211.972 82.7331 211.917 82.1285C211.393 60.5052 200.503 39.8573 181.485 24.5345C161.987 8.82532 135.542 0 107.968 0C80.3942 0 53.9494 8.82532 34.4516 24.5345Z" fill="#C4C4C4"/>
<path d="M3.99995 83.766V88.766H-1.00005V83.766H3.99995ZM34.4516 24.5345L31.3146 20.641L31.3146 20.641L34.4516 24.5345ZM4.06422 83.766V78.766H9.11293L9.06399 83.8145L4.06422 83.766ZM211.917 82.1285L206.937 82.5817L206.922 82.416L206.918 82.2496L211.917 82.1285ZM181.485 24.5345L184.622 20.641L184.622 20.641L181.485 24.5345ZM-1.00005 83.766C-1.00005 59.8322 10.808 37.1629 31.3146 20.641L37.5885 28.428C19.0994 43.3245 8.99995 63.2676 8.99995 83.766H-1.00005ZM4.06422 88.766H3.99995V78.766H4.06422V88.766ZM9.06399 83.8145C9.06351 83.8644 9.06326 83.9144 9.06326 83.9646H-0.936737C-0.936737 83.8822 -0.936339 83.7998 -0.935541 83.7175L9.06399 83.8145ZM9.06326 83.9646V95.2096H-0.936737V83.9646H9.06326ZM9.06326 95.2096C9.06326 103.494 15.779 110.21 24.0633 110.21V120.21C10.2561 120.21 -0.936737 109.017 -0.936737 95.2096H9.06326ZM24.0633 110.21H192V120.21H24.0633V110.21ZM192 110.21C200.284 110.21 207 103.494 207 95.2096H217C217 109.017 205.807 120.21 192 120.21V110.21ZM207 95.2096V83.9645H217V95.2096H207ZM207 83.9645C207 83.4971 206.979 83.0359 206.937 82.5817L216.896 81.6753C216.965 82.4304 217 83.194 217 83.9645H207ZM184.622 20.641C204.624 36.7559 216.351 58.7182 216.915 82.0073L206.918 82.2496C206.435 62.2922 196.383 42.9587 178.348 28.428L184.622 20.641ZM107.968 -5C136.561 -5 164.144 4.1422 184.622 20.641L178.348 28.428C159.83 13.5084 134.524 5 107.968 5V-5ZM31.3146 20.641C51.7925 4.14221 79.3759 -5 107.968 -5V5C81.4125 5 56.1064 13.5084 37.5885 28.428L31.3146 20.641Z" fill="#9D9D9D" fill-opacity="0.31" mask="url(#path-1-inside-1_6_112)"/>
<rect width="142.402" height="63.0709" rx="31.5354" transform="matrix(-1 0 0 1 178.723 40.4048)" fill="#12A79E"/>
<path d="M4.38263 126.011H212V221.924C212 259.756 181.331 290.424 143.5 290.424H72.8827C35.0512 290.424 4.38263 259.756 4.38263 221.924V126.011Z" fill="#C4C4C4"/>
<path d="M6.88263 128.511H209.5V221.924C209.5 258.375 179.951 287.924 143.5 287.924H72.8827C36.4319 287.924 6.88263 258.375 6.88263 221.924V128.511Z" stroke="#9D9D9D" stroke-opacity="0.31" stroke-width="5"/>
<path d="M97.0566 68.375V72.125L62.2566 89.3V84.125L91.2066 70.25L62.2566 56.3V51.125L97.0566 68.375ZM113.077 85.025C113.077 86.325 112.652 87.425 111.802 88.325C110.952 89.225 109.852 89.675 108.502 89.675C107.152 89.675 106.052 89.3 105.202 88.55C104.352 87.75 103.927 86.675 103.927 85.325C103.927 83.925 104.327 82.775 105.127 81.875C105.977 80.975 107.077 80.525 108.427 80.525C111.527 80.525 113.077 82.025 113.077 85.025ZM119.898 72.125V68.375L154.698 51.125V56.3L125.748 70.25L154.698 84.125V89.3L119.898 72.125Z" fill="white"/>
</g>
<defs>
<filter id="filter0_d_6_112" x="-6.10352e-05" y="0" width="216" height="298.424" filterUnits="userSpaceOnUse" color-interpolation-filters="sRGB">
<feFlood flood-opacity="0" result="BackgroundImageFix"/>
<feColorMatrix in="SourceAlpha" type="matrix" values="0 0 0 0 0 0 0 0 0 0 0 0 0 0 0 0 0 0 127 0" result="hardAlpha"/>
<feOffset dy="4"/>
<feGaussianBlur stdDeviation="2"/>
<feComposite in2="hardAlpha" operator="out"/>
<feColorMatrix type="matrix" values="0 0 0 0 0 0 0 0 0 0 0 0 0 0 0 0 0 0 0.25 0"/>
<feBlend mode="normal" in2="BackgroundImageFix" result="effect1_dropShadow_6_112"/>
<feBlend mode="normal" in="SourceGraphic" in2="effect1_dropShadow_6_112" result="shape"/>
</filter>
</defs>
</svg>
